<svg xmlns="http://www.w3.org/2000/svg" width="200" height="140"><path fill="#f6c12b" d="M103 9c5.461 3.54 9.639 7.957 11.25 14.313L115 27h2a875 875 0 0 1 2 4.375l1.125 2.46C121 36 121 36 121 38h2c1.297 1.723 1.297 1.723 2.75 4.063 4.537 7.032 9.939 12.923 16.063 18.624C143 62 143 62 143 64l1.938.875C147 66 147 66 148 68c1.694.963 3.389 1.924 5.094 2.867 5.036 2.993 10.796 7.202 12.441 13.028C167.398 95.779 163.48 106.158 157 116a103 103 0 0 1-4 4l-1.75 2.375c-5.762 6.723-11.457 9.712-20.25 10.625-5.41.393-5.41.393-9-2l-2.875-.875c-3.398-1.223-5.356-2.84-8.125-5.125a201 201 0 0 0-6-3l-2.25-1.5c-4.032-2.2-8.335-3.291-12.75-4.5v-2l-2.75-.375c-3.547-.51-7.087-1.06-10.625-1.625l-3.148-.5C71 111 71 111 70 110a97 97 0 0 0-4.25.125c-9.62.069-20.982-2.111-28.75-8.125-1.397-2.48-1.66-4.118-2-7h-2q-.722-2.343-1.437-4.687l-.81-2.637C27.206 75.079 29.824 62.799 35 51c1.875-3.062 1.875-3.062 4-6 1.5-2.533 2.974-5.08 4.438-7.633C45 35 45 35 47.125 32.883 49.232 31.047 49.232 31.047 50 28h2l.688-1.75c1.66-2.847 3.627-4.37 6.312-6.25h2l.75-1.75c1.472-2.649 2.88-4.354 5.25-6.25 2.75-.25 2.75-.25 5 0v-2c10.795-4.155 20.2-6.203 31-1"/><path fill="#f7c22a" d="m113 31 2 1v3h2a101 101 0 0 1 3.563 5.938c1.913 3.748 1.913 3.748 4.437 7.062-.05 6.503-1.438 12.087-4 18l-2.687 6.5Q117.159 75.25 116 78h2c1.748-4.304 3.377-8.648 5-13h2l1-12c4.122 2.06 6.927 3.878 9 8 1.542 9.095-1.418 17.735-5 26h2c1.66-4.738 2.936-9.504 4.125-14.375l.55-2.23Q137.342 67.698 138 65l1.645 1.242 2.167 1.633 2.145 1.617A129 129 0 0 0 149 73c.753 8.585-1.384 16.274-5 24h2c2.716-6.476 5.104-13.009 6-20 3.985 1.708 7.036 4.072 9 8 1.24 11.867-1.648 20.922-8.812 30.375-5.66 6.628-12.562 12.595-21.45 13.977-4.522.284-6.172.11-9.8-2.852L119 124l2.23-1.355c9.173-5.2 9.173-5.2 14.77-13.645h-3l-.758 1.773c-1.407 2.522-2.93 3.978-5.117 5.852l-2.055 1.79c-2.882 2.207-5.243 3.435-8.82 4.085-4.668-.718-7.903-3.221-11.25-6.5v-2a92 92 0 0 1 5.125-3.187c5.03-3.09 8.333-6.123 11.875-10.813-3.362 1.786-6.071 3.896-8.875 6.438-8.77 7.69-8.77 7.69-13.645 7.425-4.165-.762-7.744-1.854-11.48-3.863 2-3 2-3 3.813-3.375 2.612-.746 3.86-2.07 5.687-4.027 2.51-2.675 5.19-5.182 7.828-7.73C107.22 93.003 107.22 93.003 108 90l-1.469 1.285-4.242 3.707a558 558 0 0 0-4.39 3.89c-10.92 9.74-10.92 9.74-18.383 9.384C66.937 106.937 66.937 106.937 64 104l2.309-1.066c6.245-2.987 11.659-6.137 16.949-10.614C85 91 85 91 87 91v-2a371 371 0 0 1 3.387-3.352C105.433 70.274 111.957 52.098 113 31"/><path fill="#2f0803" d="M103 9c5.461 3.54 9.639 7.957 11.25 14.313L115 27h2a875 875 0 0 1 2 4.375l1.125 2.46C121 36 121 36 121 38h2c1.297 1.723 1.297 1.723 2.75 4.063 4.537 7.032 9.939 12.923 16.063 18.624C143 62 143 62 143 64l1.938.875C147 66 147 66 148 68c1.694.963 3.389 1.924 5.094 2.867 5.036 2.993 10.796 7.202 12.441 13.028C167.398 95.779 163.48 106.158 157 116a103 103 0 0 1-4 4l-1.75 2.375c-5.762 6.723-11.457 9.712-20.25 10.625-5.41.393-5.41.393-9-2l-2.875-.875c-3.398-1.223-5.356-2.84-8.125-5.125a201 201 0 0 0-6-3l-2.25-1.5c-4.032-2.2-8.335-3.291-12.75-4.5v-2l-2.75-.375c-3.547-.51-7.087-1.06-10.625-1.625l-3.148-.5C71 111 71 111 70 110a97 97 0 0 0-4.25.125c-9.62.069-20.982-2.111-28.75-8.125-1.397-2.48-1.66-4.118-2-7h-2q-.722-2.343-1.437-4.687l-.81-2.637C27.206 75.079 29.824 62.799 35 51c1.875-3.062 1.875-3.062 4-6 1.5-2.533 2.974-5.08 4.438-7.633C45 35 45 35 47.125 32.883 49.232 31.047 49.232 31.047 50 28h2l.688-1.75c1.66-2.847 3.627-4.37 6.312-6.25h2l.75-1.75c1.472-2.649 2.88-4.354 5.25-6.25 2.75-.25 2.75-.25 5 0v-2c10.795-4.155 20.2-6.203 31-1m-30 6-2.242 1.074C56.913 23.27 46.635 36.181 40 50l-1.258 2.453c-5.142 10.59-8.014 22.949-4.43 34.422C36.868 93.504 40.22 97.848 46 102c8.292 2.764 16.604.484 24.316-3.066 16.837-8.872 31.062-24.97 36.91-43.215L108 53l.898-3.031c2.616-9.5 3.173-18.462.102-27.969-1.35-2.283-1.35-2.283-3-4h-2l-.625-1.812C101.433 13.098 99.347 12.394 96 11c-8.511-1.108-15.606-.297-23 4m40 16-.078 2.824C112.008 54.355 103.787 72.587 89 87l-2 2v2c-1.106.39-1.106.39-2.234.79-2.815 1.231-4.683 2.606-7.016 4.585C73.458 99.83 69.13 102.047 64 104c3.449 3.449 8.309 3.35 13 4l2.34.406c6.355.644 10.066-2.194 14.937-6.031 3.487-3.042 6.762-6.233 9.946-9.59C106 91 106 91 108 90c-2.154 4.182-4.954 7.132-8.3 10.36a92 92 0 0 0-3.825 3.953c-2.15 1.934-4.148 2.778-6.875 3.687v3c1.58.533 3.164 1.051 4.75 1.563l2.672.878c5.568 1.207 9.481-1.926 14.105-4.746 3.268-2.24 5.745-4.834 8.473-7.695l3-1c-4.85 6.328-9.974 10.268-17 14 1.854 4.162 3.95 5.819 8 8 3.35.745 5.182.436 8.203-1.176 4.413-2.827 8.373-5.848 11.797-9.824v-2h3c-2.116 3.982-4.37 6.389-7.937 9.125l-2.59 2.008c-2.155 1.627-4.31 3.251-6.473 4.867 2.81 2.9 5.066 4.349 9.063 4.625 9.012-.494 16.28-5.483 22.375-11.812 6.451-7.583 10.674-16.17 10.812-26.188l.078-3.398c-.456-4.488-2.032-7.088-5.39-10.04-1.843-1.361-1.843-1.361-3.938-1.187-.182.797-.364 1.593-.55 2.414C150.125 84.99 148.79 89.95 146 95v2h-2l.84-1.977c2.825-6.807 2.825-6.807 4.16-14.023l.688-3.875c.012-3.222-.602-4.036-2.883-6.414-4.003-3.753-4.003-3.753-8.805-5.711l-.805 3.29-1.07 4.335-.527 2.16C134.57 78.928 133.412 82.967 132 87h-2l1.094-2.895C135.41 72.817 135.41 72.817 135 61c-1.934-3.147-4.097-5.708-7-8h-2l-1 12h-2l-1.375 3.688c-1.17 3.12-2.37 6.224-3.625 9.312h-2l.953-2.203C123.298 62.382 123.298 62.382 125 48c-1.447-2.98-1.447-2.98-3.437-5.75l-1.934-2.86L118 37l-1-2h-2l-1-4z"/><path fill="#f4c02c" d="M92 22q2.514.428 5 1c1.955 12.264 2.347 23.726-4.062 34.625-2.085 3.314-2.085 3.314-3 7.125-.93 3.22-1.322 4.312-3.938 6.25l-2.25 1.188c-2.634 1.736-4.023 3.218-6 5.624-6.4 7.59-14.263 11.78-24 13.376l-3.203.542L48 92c-3.008-3.008-2.218-11.679-2.375-15.687.036-8.299 2.7-15.17 6.492-22.461 1.068-2.056 1.068-2.056 1.633-5.352 1.558-4.363 3.343-5.188 7.25-7.5a123 123 0 0 0 3-4h2l.734-1.773c2.799-4.924 8.256-8.324 13.329-10.602C83.696 23.852 87.31 23.438 91 23z"/><path fill="#28131b" d="M103 9c5.461 3.54 9.639 7.957 11.25 14.313L115 27h2a875 875 0 0 1 2 4.375l1.125 2.46C121 36 121 36 121 38h2c1.297 1.723 1.297 1.723 2.75 4.063 4.537 7.032 9.939 12.923 16.063 18.624C143 62 143 62 143 64l1.938.875C147 66 147 66 148 68c1.694.963 3.389 1.924 5.094 2.867C157.81 73.671 162.103 77.32 165 82c.25 3.813.25 3.813 0 7h-2l-1 6h-1l-.148-2.047-.227-2.703c-.07-.882-.14-1.763-.21-2.672-.424-2.634-.985-4.337-2.415-6.578-3.032-2.244-3.032-2.244-6-4l-.25 3.938c-.56 5.211-2.397 9.424-4.75 14.062l-1 2h-2l.898-2.941c1.224-4.283 1.99-8.608 2.727-12.996l.406-2.362q.489-2.85.969-5.701l-1.797-.836c-3.137-1.658-5.52-3.847-8.203-6.164l-.77 3.07-1.042 4.055-.502 2.016c-1.107 4.258-2.57 7.967-4.686 11.859h-2c.607-3.336 1.455-6.425 2.563-9.625 1.63-5.468 2.535-10.712 1.437-16.375-2.007-3.48-4.387-6.193-8-8l.035 1.863.028 2.45.035 2.425C126 62 126 62 125 65h-2l-.25 3.125c-.815 4.209-2.08 6.557-4.75 9.875h-2c.882-3.896 2.17-7.655 3.438-11.437l.658-1.987c.928-2.778 1.869-5.498 3.064-8.174 1.061-3.035 1.198-5.202.84-8.402-1.452-2.877-1.452-2.877-3.437-5.562-2.455-3.496-4.158-6.133-4.563-10.438l1-2h-6l-.7-1.758c-2.592-6.21-5.05-11.215-10.937-14.887-4.122-1.661-7.41-1.765-11.8-1.668l-2.198-.01c-4.767.048-8.793.857-13.365 2.323-1.995.363-3.994.706-6 1l1-3h5v-2c10.795-4.155 20.2-6.203 31-1"/><path fill="#432d10" d="M92 22q2.514.428 5 1c1.955 12.264 2.347 23.726-4.062 34.625-2.085 3.314-2.085 3.314-3 7.125-.93 3.22-1.322 4.312-3.938 6.25l-2.25 1.188c-2.634 1.736-4.023 3.218-6 5.624-6.4 7.59-14.263 11.78-24 13.376l-3.203.542L48 92c-3.008-3.008-2.218-11.679-2.375-15.687.036-8.299 2.7-15.17 6.492-22.461 1.068-2.056 1.068-2.056 1.633-5.352 1.558-4.363 3.343-5.188 7.25-7.5a123 123 0 0 0 3-4h2l.734-1.773c2.799-4.924 8.256-8.324 13.329-10.602C83.696 23.852 87.31 23.438 91 23zM66.875 37.438c-2.655 2.829-4.382 5.2-5.625 8.874C60 50 60 50 57.563 51.876 53.643 55.125 52.626 59.28 51 64l-.914 2.371C48.199 71.46 47.619 75.576 48 81l1 2h6v4c10.89-.396 17.603-7 24.973-14.527C82.58 69.293 83.175 66.959 84 63c1.938-1.125 1.938-1.125 4-2 6.502-9.65 7.606-19.613 7-31h-6v-4c-8.35 0-16.212 5.845-22.125 11.438"/><path fill="#350d04" d="m82 12-1.617.664C62.307 20.357 49.58 32.341 41 50l-1.262 2.457c-5.134 10.594-8.01 22.943-4.425 34.418C37.377 92.296 40.306 96.542 44 101c-3 0-3 0-4.687-1.5L38 98l1 4-3-1-1-6h-2q-.722-2.343-1.437-4.687l-.81-2.637C27.206 75.079 29.824 62.799 35 51c1.875-3.062 1.875-3.062 4-6 1.5-2.533 2.974-5.08 4.438-7.633C45 35 45 35 47.125 32.883 49.232 31.047 49.232 31.047 50 28h2l.688-1.75c1.66-2.847 3.627-4.37 6.312-6.25h2l.738-1.898c1.572-2.619 2.557-2.9 5.45-3.727.8-.235 1.6-.47 2.425-.71L72 13l2.043-.664c3.241-1.037 4.645-1.44 7.957-.336"/><path fill="#402b0c" d="m110 28 1 2h6l-1 5-2-3-.078 2.605C112.998 53.853 105.476 69.585 93 84l-2.11 2.773L89 89h-2v2c-2.358 2.068-5.03 3.742-7.625 5.5l-2.16 1.512C73.253 100.723 69.698 102.755 65 104l1 2h-5v-2l-3-2 1.871-.48c19.298-5.317 32.325-18.952 42.198-35.823C104.295 61.64 105.731 57.434 107 53l.898-2.89c2.126-7.45 2.438-14.393 2.102-22.11"/><path fill="#391108" d="M162 84h1v5h3c-.886 12.063-3.954 22.442-13 31l-1.75 2.375c-5.783 6.747-11.448 9.662-20.25 10.625l-3.25.438c-4.035-.642-5.817-2.645-8.75-5.438l1-3 1.438 1.5c3.929 2.3 7.12 2.287 11.562 1.5 10.072-3.416 17.442-9.573 22.594-18.879A114 114 0 0 0 159 101l1.25-3c1.151-4.606 1.43-9.272 1.75-14"/><path fill="#141113" d="M119 100h3c-2.689 6.273-8.995 10.998-15 14h-2c4.567 4.974 4.567 4.974 10.625 7.5 6.289-.932 11.362-4.942 15.25-9.875L133 109h3c-.53 3.95-2.286 5.515-5.25 8.063l-2.328 2.035C122.18 124 122.18 124 119 124l2 6c-4.473-.511-6.583-2.167-10-5a402 402 0 0 0-6-3c-2.043-1.28-4.016-2.63-6-4h3l1-1c-.41-2.054-.41-2.054-1-4l2.195-1.32c6.578-4.016 6.578-4.016 12.305-9.118z"/><path fill="#231809" d="M80 42h2c-.63 3.219-1.78 5.508-3.562 8.25l-1.38 2.14L76 54l7-1v2c-2.906 1.257-4.796 2-8 2l-1 12-3-1v-5c-2.41 2.346-4.702 4.592-6.687 7.313L63 72h-2c.615-3.999 2.603-6.804 5-10h2v-2l-7 1v-3l7-1 2-12h3v6h2l.813-2.25c1.14-2.64 2.28-4.606 4.187-6.75"/><path fill="#211913" d="M103 9c4.043 2.62 7.284 6.031 10 10v3c-2 1.688-2 1.688-4 3l-1.062-2.625C105.123 17.473 101.418 13.805 96 12a188 188 0 0 0-8.25-.187l-2.238-.038c-4.848-.012-8.86.716-13.512 2.225-1.995.363-3.994.706-6 1l1-3h5v-2c10.795-4.155 20.2-6.203 31-1"/><path fill="#4a3a11" d="M92 22h4v8h-7v-4c-10.544 3.742-19.468 8.648-26 18-1.461 3.28-1.461 3.28-2 6l-5 1c-.312-3.312-.312-3.312 0-7 2.313-1.687 2.313-1.687 5-3 1.018-1.32 2.022-2.65 3-4h2l.734-1.773c2.799-4.924 8.256-8.324 13.329-10.602C83.696 23.852 87.31 23.438 91 23z"/><path fill="#211a13" d="M144 69c4.596 1.283 7.332 3.015 11 6a204 204 0 0 0 7.11 3.852C164 80 164 80 165 82c.04 2.333.043 4.667 0 7h-2l-1 6h-1l-.148-2.047-.227-2.703c-.07-.882-.14-1.763-.21-2.672-.424-2.634-.985-4.337-2.415-6.578-3.032-2.244-3.032-2.244-6-4l-.25 3.938c-.56 5.211-2.397 9.424-4.75 14.062l-1 2h-2l.898-2.941c1.224-4.283 1.99-8.608 2.727-12.996l.406-2.362q.489-2.85.969-5.701l-1.937-.875C145 71 145 71 144 69"/><path fill="#624a19" d="M96 23h1c1.955 12.264 2.347 23.726-4.062 34.625C90.908 61.161 89.962 64.073 89 68h-1v-6l-2-1h2l.55-1.687.763-2.313.738-2.25c.744-2.155 1.593-4.275 2.48-6.375 1.895-5.019 2.257-10.06 2.656-15.375l.249-2.926Q95.733 26.54 96 23"/><path fill="#130f0b" d="m38 98 3 1v2c6.98.958 13.973 1.497 21 2l-.062 2.375c-.125 2.606-.125 2.606 1.062 4.625-7.969-.95-15.92-1.965-23-6-2-3-2-3-2-6"/><path fill="#4e3812" d="M108 90c-.536 3.998-2.455 5.768-5.312 8.5l-2.364 2.281L98 103l-2.121 2.203c-2.144 2.05-4.086 2.866-6.879 3.797v2l-8-2v-1l2.375-.562c8.386-3.326 14.721-9.2 20.813-15.715C106 90 106 90 108 90"/><path fill="#523e15" d="M55 45h1v6l3 1-1.812 1.5C54.364 56.726 53.332 59.98 52 64c-1.766 4.883-1.766 4.883-4 6-.47 3.046-.47 3.046-.625 6.563l-.227 3.628L47 83h-1c-.743-11.02 1.063-19.323 6.094-29.133C53.47 51.031 54.183 48.036 55 45"/><path fill="#453114" d="M80 42h2c-.63 3.219-1.78 5.508-3.562 8.25l-1.38 2.14L76 54l7-1v2l-7 2-1-4-5 1v-9h3v6h2l.813-2.25c1.14-2.64 2.28-4.606 4.187-6.75"/><path fill="#cea537" d="M74 33c-.58 3.255-1.526 4.937-3.875 7.25l-1.555 1.578C67 43 67 43 64 43l-.187 3.625C63.21 51.463 61.506 53.658 58 57c-2.312.875-2.312.875-4 1 1.007-3.295 1.698-4.773 4.5-6.875 2.825-2.401 2.884-3.629 3.64-7.11C63.869 39.966 69.344 33 74 33"/><path fill="#3c0f05" d="m54 24 2 1c-.506 4.351-1.865 6.37-4.875 9.5-2.862 2.999-5.097 5.877-7.125 9.5l-3-1c1.32-4.359 3.63-7.076 6.66-10.352C49.22 30.927 49.22 30.927 50 28h2z"/><path fill="#453010" d="m135 61 2 1v2h3c-1.992 7.938-4.329 15.658-8 23h-2a69.5 69.5 0 0 1 2.5-9.625c1.672-5.416 2.189-10.735 2.5-16.375"/><path fill="#473311" d="M119 100h3c-2.689 6.273-8.995 10.998-15 14h-2l2 4-4-1-1-4 2.195-1.32c6.578-4.016 6.578-4.016 12.305-9.118z"/><path fill="#503812" d="m79 92 2 1c-1.47 3.806-3.385 5.173-6.875 7.188l-2.617 1.542c-2.211 1.12-4.089 1.803-6.508 2.27l1 2h-5v-2l-3-2 1.871-.48C66.816 99.606 73.81 97.19 79 92"/><path fill="#201406" d="M92 22h4v8h-7v-4l-8 1v-2l2.152-.402 2.785-.535 2.778-.528c2.238-.312 2.238-.312 3.285-1.535"/><path fill="#3c2b0d" d="M133 109h3c-.805 5.726-5.665 8.672-10 12-2.667 1.694-5.036 2.825-8 4l-3-1v-2l3.438-1c5.63-2.082 11.83-6.536 14.562-12"/><path fill="#412c0e" d="M84 62h4c.438 3.188.438 3.188 0 7-1.597 1.579-3.262 2.632-5.176 3.8C80.317 74.45 78.73 76.579 77 79l-2-1 1.313-1.187C80.155 72.686 81.55 68.38 83 63z"/><path fill="#4a3518" d="m68 57 .313 1.938L69 61l3 1v6h-1v-5c-2.41 2.346-4.702 4.592-6.687 7.313L63 72h-2c.615-3.999 2.603-6.804 5-10h2v-2l-7 1v-3c2.49-.687 4.379-1 7-1"/><path fill="#432e0f" d="M78 73c0 3.952-1.426 6.152-4 9-4.368 3.52-8.349 6.28-14 7-2.812-.437-2.812-.437-5-1v-1l1.906-.445C65.861 84.208 71.74 79.653 78 73"/><path fill="#41160c" d="M126 46c3.67 1.478 5.41 3.476 7.75 6.625l1.86 2.477L137 57l-3 4-1.242-1.46-1.633-1.915-1.617-1.898A76 76 0 0 0 126 52l1-1a88 88 0 0 0-1-5"/><path fill="#390c09" d="M61 106c5.458-.111 10.615.083 16 1v2l6 2c-4.096 1.536-7.788.69-12 0l-1-1a70 70 0 0 0-4.062-.562L62 109z"/><path fill="#e0b539" d="m99 101 1 2c-1.213 3.234-2.013 4.009-5 6l7 3v2a589 589 0 0 1-4.75-.875l-2.672-.492c-2.447-.601-4.384-1.413-6.578-2.633 2-3 2-3 3.813-3.375 3.27-.935 4.925-3.174 7.187-5.625"/><path fill="#d7ab36" d="M81 41h4c.37 5.538.37 5.538-1.5 7.875L82 50l3 1-1 4-1-2-7 1c.967-2.679 1.854-4.814 3.625-7.062 1.76-2.086 1.76-2.086 1.375-5.938"/><path fill="#be9c3a" d="M133 114c0 3.967-1.28 5.204-4 8h-4v6h8v1c-8.035.788-8.035.788-12.062-2.5L119 124c.76-.47 1.519-.941 2.3-1.426l3.013-1.886 2.988-1.864c2.2-1.487 3.932-2.864 5.699-4.824"/><path fill="#182c59" d="M94 6v2l-2.71.262c-7.244.841-12.937 2.015-19.204 5.812-2.495 1.108-3.574.864-6.086-.074l1-2h5v-2c7.513-2.892 13.924-4.643 22-4"/><path fill="#4d3712" d="M149 74h1l.438 2.25c.474 2.63.474 2.63 1.21 4.61.473 2.876-.314 4.482-1.46 7.14l-1.083 2.563A152 152 0 0 1 146 97h-2l.898-2.973c1.175-4.112 1.973-8.258 2.727-12.465l.406-2.216q.488-2.673.969-5.346"/><path fill="#644e1a" d="M125 58c.934 3.01 1.044 3.867 0 7h-2l-.25 3.125c-.815 4.209-2.08 6.557-4.75 9.875h-2c.898-4.006 2.251-7.865 3.563-11.75l.708-2.113q.863-2.57 1.729-5.137l2 2z"/><path fill="#c8a039" d="M108 22c3.992 5.988 3.768 14.598 2.55 21.574A161 161 0 0 1 109 50h-1z"/><path fill="#1a2950" d="m39 102 2.527.621c7.757 1.859 7.757 1.859 15.66 2.817L61 106c1.238 2.035 1.238 2.035 2 4-8.026-.956-15.817-2.07-23-6z"/><path fill="#a38031" d="M38 54h1c.25 7.625.25 7.625-2 11-.451 2.05-.451 2.05-.625 4.188L36 73h-1l-1 9h-1c-.53-9.965 1.15-18.795 5-28"/><path fill="#1b1006" d="M48 67h1v17h5v3h-3v2l-3 1c-.858-4.447-1.135-8.66-1.125-13.187l-.008-3.668C47 70 47 70 48 67"/><path fill="#cea840" d="M75 57c1.048 3.144 1.005 4.872.688 8.125l-.239 2.695L75 70c-3.2 1.6-5.723.032-9-1l-1 3-2-1q1.426-2.008 2.875-4l1.617-2.25L69 63h2l.375 2.438L72 68l2 1-.035-2.117-.028-2.758-.035-2.742C74 59 74 59 75 57"/><path fill="#d5af3a" d="M112 46h1c.696 5.796-.551 10.107-2.812 15.438l-.79 1.9c-.793 1.783-.793 1.783-2.398 4.662l-3 1c1.303-4.159 2.578-8.173 4.563-12.062 1.764-3.607 2.56-7.024 3.437-10.938"/><path fill="#deb33c" d="M46 83h1l1 8q2.876-.466 5.75-.937l3.234-.528c2.38-.422 4.685-.907 7.016-1.535l-1 3c-2.547.984-2.547.984-5.75 1.75l-3.172.797c-3.06.45-5.12.264-8.078-.547z"/><path fill="#ddb03a" d="m96 22 3 1c.92 4.655 1.122 9.147 1.063 13.875l-.014 2.086q-.02 2.52-.049 5.039l-2 1z"/><path fill="#d0a83b" d="m96 21-1.937.938c-2 .897-2 .897-3.063 2.062-1.576.347-3.161.653-4.75.938-5.196.999-9.56 2.63-14.25 5.062v-3h3v-2h4v-2c11.522-2.296 11.522-2.296 17-2"/><path fill="#18274b" d="M95 7c6.688.955 10.435 4.195 15 9l1.813 1.813L113 19l-1 2-1.645-1.46c-.715-.633-1.43-1.264-2.168-1.915l-2.144-1.898c-2.131-1.868-2.131-1.868-5.043-3.727v-2l-6-1z"/><path fill="#dfb541" d="M34 72h1l.113 2.598C35.482 81.008 35.8 86.366 39 92l2 1c.727 1.979 1.398 3.98 2 6-4.53-3.322-7.9-6.273-9-12-.233-5.015-.174-9.984 0-15"/><path fill="#452a1d" d="M34 87c1.625 2.089 3.092 4.156 4.438 6.438C40.094 96.154 41.972 98.552 44 101c-3 0-3 0-4.687-1.5L38 98l1 4-3-1-.375-2.937L35 95l-2-1h3l-2-3z"/><path fill="#d5ad39" d="m138 65 8 6c-4 1-4 1-6 1l-3 7c-1.642-4.915-.106-9.055 1-14"/><path fill="#caa339" d="M85 26h4v4h6c.054 2.27.093 4.542.125 6.813l.07 3.832C95 44 95 44 93 47l1-14h-5l-1-6z"/><path fill="#d1a736" d="M57 27c.676 1.797.676 1.797 1 4-1.145 1.703-1.145 1.703-2.812 3.25l-1.645 1.578C52 37 52 37 50 37l-1 3-3 1c1.39-4.297 3.38-6.707 6.625-9.812l2.477-2.395z"/><path fill="#0a111f" d="m94 7 1 2 3 1-23 2c4.73-4.73 12.667-4.516 19-5"/><path fill="#cfaa39" d="M107 117c4.084.743 8.02 1.83 12 3v-2l6-1c-4.695 4.852-4.695 4.852-8.75 5.313-4.037-.389-6.095-1.834-9.25-4.313z"/><path fill="#4a310f" d="m103 64 2 1c-1.412 5.262-3.749 8.722-7 13l-3-2z"/><path fill="#37210e" d="m110 28 1 2h6l-1 5-2-3-2 13h-1z"/><path fill="#c6a139" d="m89.375 10.875 3.773.055L96 11v1l-3.762.621-4.925.816-2.475.409C80.878 14.503 76.93 15.176 73 16c4.215-5.152 10.134-5.243 16.375-5.125"/><path fill="#c29c36" d="M146 85h2q-.716 2.438-1.437 4.875l-.81 2.742C145 95 145 95 144 97h2l.875-2.312C148 92 148 92 150 89c-.61 3.558-1.578 6.683-3 10l-4-1c.114-1.605.242-3.209.375-4.812.07-.894.14-1.787.21-2.708C144 88 144 88 146 85"/><path fill="#be9b37" d="M66 105h22l-2 3c-6.89.547-13.266-.59-20-2z"/><path fill="#c49e3d" d="m113 31 2 1v3h2l2 6h-5l-1 2z"/><path fill="#c5a238" d="m43 99 19 2c-4.672 2.336-7.88 2.61-13 2-3.562-1.5-3.562-1.5-6-3z"/><path fill="#2a0603" d="m47 33 2 1c-1.335 3.594-2.96 6.755-5 10l-3-1c1.37-3.995 3.257-6.8 6-10"/><path fill="#4c3813" d="M80.188 26.313 83 27c-8.338 6.485-8.338 6.485-14 6l2.313-1.812c2.627-1.979 2.627-1.979 4.124-4C77 26 77 26 80.188 26.313"/><path fill="#281005" d="M124 44c2.9 2.395 3.502 4.312 4 8h-2l-.148 1.898-.227 2.477c-.07.812-.14 1.624-.21 2.46C125 61 125 61 123 63l.219-3.14.281-4.11.145-2.066c.22-3.241.355-6.433.355-9.684"/><path fill="#090c17" d="m92 113 11 1 1 3 2 2c-5.962-.411-9.316-1.253-14-5z"/><path fill="#4a3611" d="M50 61c.909 2.544 1.147 3.631.125 6.188C49 69 49 69 48 70a168 168 0 0 0-.562 6.563l-.254 3.628L47 83h-1c-.557-14.881-.557-14.881 3-21z"/><path fill="#3f2a0e" d="M96 23h1c1.054 5.93 1.588 11.988 1 18l-2 2c-1.333-13.633-1.333-13.633 0-20"/><path fill="#1f0603" d="m111 22 3 1c1.188 3.063 1.188 3.063 2 6l-5 1a177 177 0 0 1-1-7z"/><path fill="#0f0702" d="M86 62h2v7l-5 1v-5h2z"/><path fill="#453013" d="m91 54 2 1c-.448 1.981-.909 3.96-1.375 5.938l-.773 3.34L90 67l-2 1v-6l-2-1h2l.938-2.375C90 56 90 56 91 54"/><path fill="#100907" d="M61 44v6l-5 1v-6c2-1 2-1 5-1"/><path fill="#271a11" d="m82 12-1.898.84-2.477 1.098-2.46 1.09Q73.061 15.97 71 17c-2 .04-4 .043-6 0v-2q2.493-.713 4.988-1.418c1.93-.558 3.847-1.163 5.762-1.77C79 11 79 11 82 12"/><path fill="#d5af3d" d="M152 77a56.5 56.5 0 0 1 7 4l-1 2-3-1-4 6c-1.316-2.633-.748-3.802-.062-6.625l.59-2.477z"/><path fill="#570e0b" d="M35 52c1.213 3.64.672 5.31-.25 9l-.766 3.188C33.017 66.95 32.242 68.186 30 70c1.743-12.67 1.743-12.67 5-18"/><path fill="#dcb43b" d="m60 50 3 1c-4.43 5.785-4.43 5.785-7.312 6.875L54 58c1.248-3.847 2.387-6.03 6-8"/><path fill="#322714" d="M86 10h15v2l3 1-1 3-2.875-1.937C95.622 11.446 91.119 11.206 86 11z"/><path fill="#460708" d="M29 75h2c.983 2.95 1.265 5.351 1.5 8.438.252 3.302.595 6.372 1.5 9.562h-2c-2.136-6.205-3.365-11.427-3-18"/><path fill="#0d1121" d="m38 98 3 1v2l2.25-.25c3.532.321 4.516 1.603 6.75 4.25q-2.159-.427-4.312-.875l-2.426-.492C41 103 41 103 38 101z"/><path fill="#aa8730" d="M119 41c2.335 2.257 4.187 4.28 6 7-.023 2.48-.023 2.48-.375 5.188l-.336 2.73L124 58h-1l.14-1.828c.388-5.184.388-5.184-2.14-9.484L119 45z"/><path fill="#312e2d" d="M90 111q2.19.425 4.375.875l2.46.492C99 113 99 113 101 115l-8-1 5 3c-2 1-2 1-5.125.063L90 116z"/><path fill="#cca438" d="m116 107 1 3-1.937.313L113 111l-1 3h-4l-1 2-2-2z"/><path fill="#cea43a" d="M89 67c0 3.106-.54 4.353-2 7l-3-1v2l-4 1c1.505-4.215 4.293-5.713 8-8z"/><path fill="#c8a83f" d="m60 59 1 2 7-1v2h-2l-2 5-1-4h-3z"/><path fill="#bd9a3d" d="m79 48 1 3h5l-1 4-1-2-7 1c1.875-4.875 1.875-4.875 3-6"/><path fill="#443218" d="m68 101-3 3 1 2h-5v-2l-3-2c3.38-1.04 6.478-1.08 10-1"/><path fill="#c29c3f" d="M126 53c3.795 1.491 5.61 3.757 8 7l-2 1v-2l-6-1z"/><path fill="#230a05" d="m119 125 3.188 1.938c2.92 1.68 5.43 2.652 8.812 3.062v1c-1.437.081-2.874.14-4.312.188l-2.426.105C122 131 122 131 120.207 129.676 119 128 119 128 119 125"/><path fill="#272548" d="M111 124c6.523 1.477 6.523 1.477 8.938 4.125.35.619.7 1.238 1.062 1.875-4.833-.414-6.827-2.464-10-6"/><path fill="#d8af39" d="M108 51q-.423 2.221-.875 4.438l-.492 2.496L106 60l-2 1v-9c2-1 2-1 4-1"/><path fill="#141e43" d="M99 117c8.35 2.31 8.35 2.31 11.063 5.188L111 124c-4.932-.448-8.32-2.86-12-6z"/><path fill="#e2b843" d="m73 101 1 4H64c1-2 1-2 3.938-3.125C71 101 71 101 73 101"/><path fill="#1d274e" d="m160 79 4 1c1.478 2.957 1.06 5.742 1 9h-2z"/><path fill="#3d290b" d="m68 33 4 1-7 7-2-1z"/><path fill="#4e3b12" d="M133 109h3c-.398 2.886-.79 3.822-3.062 5.75L131 116l-2-2c1.813-2.5 1.813-2.5 4-5"/><path fill="#c49a35" d="M135 79c.688 1.625.688 1.625 1 4-1.437 3.25-1.437 3.25-3 6l-4-1 1-3v2h2l.938-2.875C134 81 134 81 135 79"/><path fill="#2e2412" d="m158 80 4 1v14h-1l-.148-2.012c-.563-6.7-.563-6.7-2.852-12.988"/><path fill="#1c284a" d="M72 10h5c-3.61 3.291-6.126 4.547-11 5l1-3h5z"/><path fill="#cba438" d="m97 78 1 2c-1.125 3.063-1.125 3.063-3 6-2.687.875-2.687.875-5 1q1.468-1.97 2.938-3.937l1.652-2.215C96 79 96 79 97 78"/><path fill="#bf9b40" d="M90 107c2.063.438 2.063.438 4 1l-1 3 3 1-7-1c0-3 0-3 1-4"/><path fill="#c4a035" d="M87 89h2c-.687 2.375-.687 2.375-2 5-2.915 1.57-4.68 2-8 2 5.75-5 5.75-5 8-5z"/><path fill="#172548" d="M152 71c3.817 1.555 6.192 4.036 9 7-3.403-1.059-6.014-2.009-9-4z"/><path fill="#3f240b" d="M119 69h2c-.557 3.344-1.352 6.033-3 9h-2c.7-3.147 1.76-6.026 3-9"/><path fill="#d6ad3c" d="m79 65 3 1c-.312 2.375-.312 2.375-1 5l-3 2z"/><path fill="#ca9f37" d="M38 54h1c.372 7.566.372 7.566-1.512 9.762L36 65q.212-2.188.438-4.375c.08-.812.162-1.624.246-2.46C37 56 37 56 38 54"/><path fill="#7e201e" d="M126 46c4.274 1.583 6.265 4.506 9 8h-3l-.812-1.937c-1.075-2.394-1.075-2.394-4.188-3.063z"/><path fill="#dbb239" d="M133 114c0 3.932-1.394 5.164-4 8h-2c.349-3.255 1.021-4.019 3.563-6.25z"/><path fill="#4d3913" d="M78 73c0 3.999-1.726 5.802-4 9l-3-2z"/><path fill="#3b0601" d="M153 114h2c-.645 3.485-2.101 6.028-4 9-.687-1.687-.687-1.687-1-4 1.313-2.75 1.313-2.75 3-5"/><path fill="#3d2a11" d="m91 107-2 4-8-2v-1q1.935-.543 3.875-1.062l2.18-.598C89 106 89 106 91 107"/><path fill="#dbae35" d="M89 79c2.063.438 2.063.438 4 1l-5 5a100 100 0 0 1 0-5z"/><path fill="#cea537" d="M117 72c0 3 0 3-1 6h2v2l-4-1c.75-4.75.75-4.75 3-7"/><path fill="#cda638" d="M68 19c-.687 1.938-.687 1.938-2 4-2.625.75-2.625.75-5 1 4.75-5 4.75-5 7-5"/><path fill="#50190c" d="M140 125c2.125.938 2.125.938 4 2l-3 4-3-1h2v-3l-2-1z"/><path fill="#d1aa3d" d="M133 73c1.392 4.176-.177 6.135-2 10-1.61-3.218-.075-5.716 1-9z"/><path fill="#c9a236" d="M107 60h1c.25 5.625.25 5.625-2 9h-2z"/><path fill="#3e1907" d="M35 51h5c-1.125 2.972-2.223 5.334-4 8z"/><path fill="#d3ad46" d="M70 44h4v3l3 1-2 3h-2v-6z"/><path fill="#481f0d" d="M55 23h6l-5 5z"/><path fill="#e5b63c" d="m75 16-2 4-5-1c2.5-3 2.738-3 7-3"/></svg>